<svg width="255" height="255" viewBox="0 0 255 255" fill="none" xmlns="http://www.w3.org/2000/svg">
<rect width="255" height="255" rx="30" fill="#E21E2F"/>
<path d="M182.57 146.016L170.92 146.036C168.81 146.036 167.47 147.626 167.65 149.576C167.81 151.356 169.43 152.696 171.4 152.356L178.06 152.496L188.59 183.836C188.59 183.836 74.7 185.176 71.99 184.586L84.72 152.356L88.76 152.416H94.3C96.15 152.416 97.54 150.966 97.57 149.326C97.61 147.756 96.32 146.056 94.49 146.046L80.05 146.016L67 183.936V190.126L196.3 189.956V186.906L182.57 146.016Z" fill="white"/>
<path d="M167.71 86.1256C163.41 77.9356 156.43 71.6856 147.92 67.9956C139.22 64.2356 129.57 64.0756 120.56 67.1756C113.28 69.6856 106.7 73.8856 101.51 79.5656C95.3596 86.2956 91.9596 94.7456 91.1196 103.776C89.5396 120.906 96.4396 137.586 106.72 151.096C113.54 160.056 121.92 167.476 131.34 173.566C132.64 174.406 133.8 174.176 135 173.396C138.39 171.166 141.57 168.986 144.67 166.286C155.7 156.656 164.12 144.466 168.9 130.566C173.77 116.376 174.77 99.5656 167.7 86.1256H167.71ZM135.64 138.186C118.16 140.296 102.24 127.756 100.14 110.266C98.0596 92.9556 110.42 76.8556 128.12 74.7856C145.88 72.7056 161.65 85.5656 163.57 102.976C165.49 120.376 153.02 136.086 135.63 138.186H135.64Z" fill="black"/>
<path d="M150.13 96.9962C138.91 82.9862 107.21 92.0562 113.11 100.926C113.84 102.016 115.14 102.486 116.71 102.486L147.8 102.466C149.12 102.466 150.6 102.016 151.02 100.976C151.54 99.7162 150.99 98.0562 150.13 96.9862V96.9962ZM123.78 97.9262C122.83 98.2162 121.74 97.5562 121.45 96.5462C121.18 95.6262 121.79 94.5162 122.93 94.2662C123.94 94.0462 124.88 94.7162 125.1 95.5162C125.41 96.6262 124.82 97.6162 123.78 97.9362V97.9262ZM132.11 96.1262C131.06 96.3262 130.05 95.6062 129.87 94.5762C129.68 93.5162 130.36 92.5362 131.59 92.3462C132.56 92.1962 133.52 93.0062 133.67 93.8562C133.86 94.9562 133.12 95.9362 132.11 96.1262ZM141.36 97.5862C140.45 98.0762 139.43 97.7662 138.94 97.1562C138.16 96.1862 138.44 94.9662 139.6 94.3162C140.57 93.7662 141.71 94.2562 142.13 95.1562C142.53 96.0062 142.16 97.1462 141.35 97.5862H141.36Z" fill="white"/>
<path d="M150.57 114.375C150.93 117.775 148.99 120.585 145.62 120.585H117.63C114.86 120.585 113.11 118.535 112.79 115.985C112.71 115.385 112.68 113.665 113.62 113.665L149.02 113.615C149.54 113.615 150.52 113.965 150.57 114.375Z" fill="white"/>
<path d="M142.66 104.526C146.31 104.206 150.67 104.746 150.65 107.936C150.64 109.586 148.79 111.336 146.88 111.346L118.66 111.436C115.75 111.436 112.99 110.656 112.76 108.276C112.53 105.896 114.79 104.506 117.8 104.506H132.19L137.46 109.916L142.66 104.516V104.526Z" fill="white"/>
</svg>
